<?xml version="1.0" encoding="UTF-8" standalone="no"?>
<!-- Created with Inkscape (http://www.inkscape.org/) -->
<svg
   xmlns:dc="http://purl.org/dc/elements/1.1/"
   xmlns:cc="http://web.resource.org/cc/"
   xmlns:rdf="http://www.w3.org/1999/02/22-rdf-syntax-ns#"
   xmlns:svg="http://www.w3.org/2000/svg"
   xmlns="http://www.w3.org/2000/svg"
   xmlns:sodipodi="http://inkscape.sourceforge.net/DTD/sodipodi-0.dtd"
   xmlns:inkscape="http://www.inkscape.org/namespaces/inkscape"
   sodipodi:docname="nomail.svg"
   sodipodi:docbase="/home/khayber/Apps/Applets/Postal/images"
   version="1.0"
   inkscape:version="0.41"
   sodipodi:version="0.32"
   id="svg2"
   height="32pt"
   width="32pt">
  <defs
     id="defs4">
    <linearGradient
       id="linearGradient2057">
      <stop
         id="stop2059"
         offset="0.0000000"
         style="stop-color:#ffff00;stop-opacity:1.0000000;" />
      <stop
         id="stop2067"
         offset="0.63520408"
         style="stop-color:#ffff3a;stop-opacity:0.88659793;" />
      <stop
         id="stop2069"
         offset="0.84693879"
         style="stop-color:#ffff44;stop-opacity:0.48235294;" />
      <stop
         id="stop2061"
         offset="1.0000000"
         style="stop-color:#ffff00;stop-opacity:0.092783503;" />
    </linearGradient>
  </defs>
  <sodipodi:namedview
     inkscape:window-y="0"
     inkscape:window-x="0"
     inkscape:window-height="714"
     inkscape:window-width="1024"
     inkscape:current-layer="layer1"
     inkscape:document-units="px"
     inkscape:cy="20.000000"
     inkscape:cx="20.000000"
     inkscape:zoom="13.450000"
     inkscape:pageshadow="2"
     inkscape:pageopacity="0"
     borderopacity="1.0"
     bordercolor="#666666"
     pagecolor="#ffffff"
     id="base" />
  <metadata
     id="metadata7">
    <rdf:RDF
       id="RDF6">
      <cc:Work
         id="Work8"
         rdf:about="">
        <dc:format
           id="format10">image/svg+xml</dc:format>
        <dc:type
           id="type12"
           rdf:resource="http://purl.org/dc/dcmitype/StillImage" />
      </cc:Work>
    </rdf:RDF>
  </metadata>
  <g
     id="layer1"
     inkscape:groupmode="layer"
     inkscape:label="Layer 1">
    <path
       sodipodi:nodetypes="ccccccccsscc"
       id="path1305"
       d="M 2.762539,20.467942 L 2.762539,29.891954 C 2.762539,31.376619 3.9855496,32.571854 5.5047153,32.571854 L 35.262408,32.571854 C 36.781574,32.571854 38.004584,31.376619 38.004584,29.891954 L 38.004584,14.110316 C 38.004584,12.625651 36.781574,11.430415 35.262408,11.430415 L 5.5047153,11.430415 C 3.6609603,11.379251 2.6966391,12.194572 2.8326892,13.771801 C 2.902201,14.57765 2.7927824,13.44821 2.8880143,14.450121 C 2.9200352,14.787005 19.677929,23.303228 19.677929,23.303228 L 33.231165,16.161033"
       style="opacity:0.5;fill:none;fill-opacity:1;stroke:#000000;stroke-width:1.967641;stroke-linecap:round;stroke-linejoin:round;stroke-miterlimit:4;stroke-dasharray:none;stroke-opacity:1" />
    <path
       sodipodi:nodetypes="ccccccccsscc"
       id="rect3055"
       d="M 1.5768487,19.245962 L 1.5768487,28.669974 C 1.5768487,30.154639 2.7908467,31.349874 4.2988172,31.349874 L 33.837218,31.349874 C 35.345189,31.349874 36.559187,30.154639 36.559187,28.669974 L 36.559187,12.888336 C 36.559187,11.403671 35.345189,10.208435 33.837218,10.208435 L 4.2988172,10.208435 C 2.4686493,10.157271 1.5114344,10.972592 1.6464819,12.549821 C 1.7154815,13.35567 1.6068692,12.22623 1.7013993,13.228141 C 1.7331842,13.565025 18.367585,22.081248 18.367585,22.081248 L 31.820944,14.939053"
       style="stroke-opacity:1.0000000;stroke-dasharray:none;stroke-miterlimit:4;stroke-linejoin:round;stroke-linecap:round;stroke-width:1.96037757;stroke:#38ea00;fill-opacity:1;fill:none" />
  </g>
</svg>
