<?xml version="1.0" encoding="UTF-8" standalone="no"?>
<!-- Created with Inkscape (http://www.inkscape.org/) -->
<svg
   xmlns:dc="http://purl.org/dc/elements/1.1/"
   xmlns:cc="http://web.resource.org/cc/"
   xmlns:rdf="http://www.w3.org/1999/02/22-rdf-syntax-ns#"
   xmlns:svg="http://www.w3.org/2000/svg"
   xmlns="http://www.w3.org/2000/svg"
   xmlns:sodipodi="http://inkscape.sourceforge.net/DTD/sodipodi-0.dtd"
   xmlns:inkscape="http://www.inkscape.org/namespaces/inkscape"
   sodipodi:docname="nomail.svg"
   sodipodi:docbase="/home/ken/Apps/Applets/Postal/images"
   version="1.0"
   inkscape:version="0.43"
   sodipodi:version="0.32"
   id="svg2"
   height="32pt"
   width="32pt">
  <defs
     id="defs4" />
  <sodipodi:namedview
     inkscape:window-y="0"
     inkscape:window-x="0"
     inkscape:window-height="714"
     inkscape:window-width="1024"
     inkscape:current-layer="layer1"
     inkscape:document-units="px"
     inkscape:cy="20"
     inkscape:cx="20"
     inkscape:zoom="13.45"
     inkscape:pageshadow="2"
     inkscape:pageopacity="0"
     borderopacity="1.0"
     bordercolor="#666666"
     pagecolor="#ffffff"
     id="base" />
  <metadata
     id="metadata7">
    <rdf:RDF>
      <cc:Work
         rdf:about="">
        <dc:format>image/svg+xml</dc:format>
        <dc:type
           rdf:resource="http://purl.org/dc/dcmitype/StillImage" />
      </cc:Work>
    </rdf:RDF>
  </metadata>
  <g
     id="layer1"
     inkscape:groupmode="layer"
     inkscape:label="Layer 1">
    <path
       sodipodi:nodetypes="ccccccccsscc"
       id="path1305"
       d="M 5.7067481,19.947496 L 5.7067481,29.371508 C 5.7067481,30.856173 6.7450171,32.051408 8.0347056,32.051408 L 33.297356,32.051408 C 34.587045,32.051408 35.625313,30.856173 35.625313,29.371508 L 35.625313,13.58987 C 35.625313,12.105205 34.587045,10.909969 33.297356,10.909969 L 8.0347056,10.909969 C 6.4694586,10.858805 5.6508027,11.674126 5.7663018,13.251355 C 5.8253135,14.057204 5.7324231,12.927764 5.8132698,13.929675 C 5.8404538,14.266559 20.066987,22.782782 20.066987,22.782782 L 31.572942,15.640587"
       style="opacity:0.5;fill:none;fill-opacity:1;stroke:#000000;stroke-width:1.81294942;stroke-linecap:round;stroke-linejoin:round;stroke-miterlimit:4;stroke-dasharray:none;stroke-opacity:1" />
    <path
       sodipodi:nodetypes="ccccccccsscc"
       id="rect3055"
       d="M 4.700162,18.725516 L 4.700162,28.149528 C 4.700162,29.634193 5.7307798,30.829428 7.0109641,30.829428 L 32.087448,30.829428 C 33.367633,30.829428 34.39825,29.634193 34.39825,28.149528 L 34.39825,12.36789 C 34.39825,10.883225 33.367633,9.6879889 32.087448,9.6879889 L 7.0109641,9.6879889 C 5.4572519,9.6368249 4.6446288,10.452146 4.7592768,12.029375 C 4.8178537,12.835224 4.7256478,11.705784 4.8058986,12.707695 C 4.8328823,13.044579 18.954577,21.560802 18.954577,21.560802 L 30.375742,14.418607"
       style="fill:none;fill-opacity:1;stroke:#505050;stroke-width:1.80625701;stroke-linecap:round;stroke-linejoin:round;stroke-miterlimit:4;stroke-dasharray:none;stroke-opacity:1" />
  </g>
</svg>
